<?xml version="1.0" encoding="utf-8"?>
<!-- Generator: Adobe Illustrator 23.0.2, SVG Export Plug-In . SVG Version: 6.00 Build 0)  -->
<svg version="1.1" id="Layer_1" xmlns="http://www.w3.org/2000/svg" xmlns:xlink="http://www.w3.org/1999/xlink" x="0px" y="0px"
	 viewBox="0 0 500 500" style="enable-background:new 0 0 500 500;" xml:space="preserve">
<style type="text/css">
	.st0{fill:#4F4F4F;}
</style>
<path class="st0" d="M461.64,169.8c0,32.74-15.83,55.5-36.75,81.73L267.98,430.1c-8.69,9.89-24.1,9.85-32.73-0.08L73.66,244.33
	l-9.14-11.25c-0.4-0.49-0.78-1-1.13-1.52c-0.08-0.11-0.15-0.23-0.23-0.34c-11.84-17.4-18.79-38.56-18.79-61.42
	c0-59.26,46.7-107.29,104.32-107.29S253,110.54,253,169.8c0-59.26,46.7-107.29,104.32-107.29S461.64,110.54,461.64,169.8z"/>
</svg>
