<?xml version="1.0" encoding="utf-8"?>
<!-- Generator: Adobe Illustrator 23.0.2, SVG Export Plug-In . SVG Version: 6.00 Build 0)  -->
<svg version="1.1" id="Layer_1" xmlns="http://www.w3.org/2000/svg" xmlns:xlink="http://www.w3.org/1999/xlink" x="0px" y="0px"
	 viewBox="0 0 323.58 323.58" style="enable-background:new 0 0 323.58 323.58;" xml:space="preserve">
<style type="text/css">
	.st0{clip-path:url(#SVGID_2_);}
	.st1{fill:#4F4F4F;}
</style>
<g>
	<defs>
		<rect id="SVGID_1_" x="19.09" y="17.09" width="288.82" height="288.82"/>
	</defs>
	<clipPath id="SVGID_2_">
		<use xlink:href="#SVGID_1_"  style="overflow:visible;"/>
	</clipPath>
	<g class="st0">
		<path class="st1" d="M163.5,92.97l103.01,84.92c0,0.12,0.03,0.3,0.09,0.54c0.06,0.24,0.09,0.41,0.09,0.53v85.99
			c0,3.1-1.14,5.79-3.4,8.06c-2.27,2.27-4.96,3.41-8.06,3.41h-68.79v-68.79h-45.87v68.8H71.78c-3.1,0-5.8-1.14-8.06-3.41
			c-2.27-2.26-3.41-4.96-3.41-8.06v-85.99c0-0.48,0.07-0.84,0.18-1.07L163.5,92.97z"/>
		<path class="st1" d="M21.08,158.54l39.23-32.6V52.85c0-1.67,0.54-3.05,1.62-4.12c1.07-1.07,2.44-1.61,4.12-1.61h34.4
			c1.67,0,3.05,0.54,4.12,1.61c1.07,1.08,1.61,2.45,1.61,4.12v34.93l43.71-36.55c3.82-3.11,8.36-4.66,13.61-4.66
			c5.26,0,9.79,1.55,13.61,4.66l128.81,107.31c1.19,0.95,1.85,2.24,1.97,3.85c0.12,1.61-0.3,3.02-1.25,4.21l-11.11,13.26
			c-0.96,1.07-2.21,1.73-3.76,1.97c-1.43,0.12-2.87-0.3-4.3-1.25L163.5,77.21L39.53,180.58c-0.96,0.83-2.21,1.25-3.76,1.25h-0.54
			c-1.55-0.24-2.8-0.9-3.76-1.97l-11.11-13.26c-0.96-1.2-1.37-2.6-1.25-4.21C19.23,160.78,19.89,159.5,21.08,158.54z"/>
	</g>
</g>
</svg>
