<?xml version="1.0" encoding="utf-8"?>
<!-- Generator: Adobe Illustrator 23.0.2, SVG Export Plug-In . SVG Version: 6.00 Build 0)  -->
<svg version="1.1" id="Layer_1" xmlns="http://www.w3.org/2000/svg" xmlns:xlink="http://www.w3.org/1999/xlink" x="0px" y="0px"
	 viewBox="0 0 27 27.7" style="enable-background:new 0 0 27 27.7;" xml:space="preserve">
<path d="M13.5,7.2l9.6,7.9c0,0,0,0,0,0.1c0,0,0,0,0,0.1v8c0,0.3-0.1,0.5-0.3,0.8c-0.2,0.2-0.5,0.3-0.8,0.3h-6.4V18h-4.3v6.4H4.9
	c-0.3,0-0.5-0.1-0.8-0.3c-0.2-0.2-0.3-0.5-0.3-0.8v-8v-0.1L13.5,7.2z"/>
<path d="M0.2,13.3l3.7-3V3.4c0-0.1,0-0.3,0.1-0.4s0.2-0.2,0.4-0.2h3.2C7.8,2.9,7.9,2.9,8,3c0.1,0.1,0.2,0.2,0.2,0.4v3.3l4.1-3.4
	C12.6,3,13,2.8,13.5,2.8s0.9,0.1,1.3,0.4l12,10c0.1,0.1,0.2,0.2,0.2,0.4s0,0.3-0.1,0.4l-1,1.2c-0.1,0.1-0.2,0.2-0.4,0.2
	c-0.1,0-0.3,0-0.4-0.1L13.5,5.7L1.9,15.4c-0.1,0.1-0.2,0.1-0.4,0.1l0,0c-0.1,0-0.3-0.1-0.4-0.2l-1-1.2C0,13.9,0,13.8,0,13.7
	C0,13.5,0.1,13.4,0.2,13.3z"/>
</svg>
