<?xml version="1.0" encoding="utf-8"?>
<!-- Generator: Adobe Illustrator 23.0.2, SVG Export Plug-In . SVG Version: 6.00 Build 0)  -->
<svg version="1.1" id="Layer_1" xmlns="http://www.w3.org/2000/svg" xmlns:xlink="http://www.w3.org/1999/xlink" x="0px" y="0px"
	 viewBox="0 0 27 27.7" style="enable-background:new 0 0 27 27.7;" xml:space="preserve">
<path d="M1.3,2.9c1,0.3,2.3,0.7,3.7,1.3c2.3,1,4,2.2,4.9,2.9c1.1,0.9,2.5,2,3.9,3.8c0.6,0.9,1.5,2.1,2.1,4.1
	c0.1,0.5,0.4,1.4,0.4,2.7c0,1.7-0.4,2.9-0.8,4c-0.4,1-1,2.3-2,3.7c-0.9,0.1-2.4,0.1-4-0.2C8.8,25,7.4,24.7,6,23.8
	c-2.2-1.4-3.3-3.2-3.8-4.2c-1.4-2.4-1.6-4.5-1.9-6.2c-0.1-0.8-0.4-3.3,0.1-6.5C0.6,5.3,1,3.9,1.3,2.9z"/>
<path d="M26.8,11.9c-1.6,0.1-2.9,0.5-3.7,0.8c-1.1,0.4-2.8,1.1-4.2,2.8c-0.5,0.6-1.3,1.6-1.5,3.2c-0.3,2.1,0.5,3.7,0.9,4.3
	c0.6,0.2,1.6,0.4,2.9,0.2c1.6-0.2,2.7-1,2.9-1.2c1.4-1.1,1.8-2.4,2.3-3.8c0.7-2,0.7-3.7,0.6-4.5C27,13.1,26.9,12.4,26.8,11.9z"/>
</svg>
