<?xml version="1.0" encoding="utf-8"?>
<!-- Generator: Adobe Illustrator 23.0.2, SVG Export Plug-In . SVG Version: 6.00 Build 0)  -->
<svg version="1.1" xmlns="http://www.w3.org/2000/svg" xmlns:xlink="http://www.w3.org/1999/xlink" x="0px" y="0px"
	 viewBox="0 0 323.58 323.58" style="enable-background:new 0 0 323.58 323.58;" xml:space="preserve">
<style type="text/css">
	.st0{fill:#4F4F4F;}
	.st1{fill:none;stroke:#4F4F4F;stroke-width:20;stroke-linecap:round;stroke-linejoin:round;stroke-miterlimit:10;}
</style>
<g id="Layer_1">
	<path class="st0" d="M60.3,67.47c0-4.35,3.46-7.88,7.73-7.88h30.91c4.27,0,7.73,3.53,7.73,7.88v204.95H60.3V67.47z"/>
	<path class="st0" d="M137.57,162.06c0-4.35,3.46-7.88,7.73-7.88h30.91c4.27,0,7.73,3.53,7.73,7.88v110.36h-46.36V162.06z"/>
	<path class="st0" d="M214.83,99c0-4.35,3.46-7.88,7.73-7.88h30.91c4.27,0,7.73,3.53,7.73,7.88v173.42h-46.36V99z"/>
	<path class="st1" d="M21.67,59.58v204.95c0,4.35,3.46,7.88,7.73,7.88h278.15"/>
</g>
<g id="Layer_2">
</g>
</svg>
