<?xml version="1.0" encoding="utf-8"?>
<!-- Generator: Adobe Illustrator 23.0.2, SVG Export Plug-In . SVG Version: 6.00 Build 0)  -->
<svg version="1.1" id="Layer_1" xmlns="http://www.w3.org/2000/svg" xmlns:xlink="http://www.w3.org/1999/xlink" x="0px" y="0px"
	 viewBox="0 0 500 500" style="enable-background:new 0 0 500 500;" xml:space="preserve">
<style type="text/css">
	.st0{fill:none;stroke:#000000;stroke-width:20;stroke-linecap:round;stroke-linejoin:round;stroke-miterlimit:10;}
</style>
<circle class="st0" cx="251" cy="252" r="219"/>
<path class="st0" d="M224.5,118.5c-8.3,0.23-15.15,1.37-18,2c-22.59,5-23.9,29.2-44,34c-11.12,2.66-11.24-4.64-36-6
	c-14.38-0.79-29.35-1.62-37,8c-4.72,5.94-5.6,14.53-4,21c2.47,9.98,9.59,9.9,13,20c3.56,10.55-0.67,21.15-3,27
	c-5.51,13.81-11.64,12.91-14,23c-0.94,4.04-0.67,7.21,8,33c7.57,22.53,9.01,25.01,12,26c8,2.64,12.55-10.23,31-15
	c2.16-0.56,21.57-5.31,32,5c1.06,1.04,5.84,5.78,5,11c-0.93,5.74-7.63,5.7-13,13c-4.73,6.42-6.35,15.72-4,23
	c2.51,7.78,7.64,7.3,11,15c4.07,9.33-1.54,14.4-1,26c0.71,15.19,11.27,26.04,20,35c4.67,4.8,20.9,21.46,31,17
	c2.95-1.3,5.87-4.63,6-8c0.13-3.25-2.4-4.53-6-10c-1.75-2.67-5.18-7.87-6-14c-0.91-6.79,1.69-12.31,3-15c0.98-2.02,4.59-8.87,16-16
	c15.5-9.67,22.35-5.46,31-14c0.99-0.98,8.27-8.37,9-19c0.74-10.84-2.83-9.7-16-25c-13.51-15.69-20.26-23.53-29-25
	c-13.92-2.34-26.62,7.5-33,1c-1.83-1.87-9-17-9-17l0,0c17.61-9.83,22-11,22-11c9.72-2.59,11.89,1.65,31,4c14.84,1.82,30.7,3.77,38-5
	c4.35-5.22,4.07-12.33,4-14c-0.48-12.13-10.44-15.15-10-24c0.4-7.98,8.65-8.56,16-20c8.4-13.09,7.43-27.64,7-34
	c-0.47-7.07-1.56-23.23-14-36c-11.22-11.52-25.6-14.05-31-15C235.13,118.2,227.95,118.4,224.5,118.5z"/>
<path class="st0" d="M413,109c-8.75,1.62-30.93,10.1-47,24c-6.58,5.69-19.42,17.1-25,37c-2.09,7.46-6.99,24.93,1,41
	c8.68,17.45,24.72,17.45,30,36c2.9,10.19,0.06,17.21,4,19c5.24,2.38,16.71-7.16,23-18c6.88-11.87,4.89-20.68,11-23
	c5.4-2.05,12.05,2.88,15,6c6.08,6.42,7.51,16.75,4,24c-4.31,8.9-13.1,7.04-16,15c-1.76,4.81,1.14,11.27,7,24
	c5.53,12.01,8.37,18.01,12,18c2.93-0.01,4.53-3.5,13-17c3.68-5.86,6.81-10.67,9-14"/>
<path class="st0" d="M260.09,466.64c0.15-6.69,1.6-18.78,10.24-31.33c3.66-5.32,10.23-14.58,23.49-20.67
	c2.62-1.21,23.2-10.66,35.95-3.63c8.94,4.94,7.7,14.5,13.55,14.86c6.81,0.42,9.34-12.52,22.62-15.34c5.86-1.24,11.57-0.04,12.5,0.16
	c5.04,1.11,8.5,3.23,10.31,4.54"/>
<path class="st0" d="M166,61c0.31,1.92,2.06,11.59,11,18c1.12,0.8,7.97,5.57,17,5c2.57-0.16,6.05-1.44,13-4
	c7.92-2.91,11.88-4.37,14-6c6.41-4.92,4.8-8.78,11-13c5.37-3.66,11.18-3.89,14-4c7.48-0.29,13.18,2.25,17,4
	c7.66,3.52,6.78,5.58,12,7c7.38,2.01,14.27-0.73,20-3c4.23-1.68,7.22-2.91,10-6c3.95-4.4,4.78-9.58,5-12"/>
<path class="st0" d="M372,310c-4.63,3.63-8.67,6.81-9,12c-0.4,6.38,5.04,11.82,10,14c1.72,0.75,5.35,2.35,9,1
	c2.28-0.84,3.29-2.35,9-14c3.87-7.89,4.57-9.58,4-12c-0.72-3.05-3.1-5.82-6-7C382.84,301.49,376.02,306.84,372,310z"/>
</svg>
